<svg width="151" height="31" viewBox="0 0 151 31" fill="none" xmlns="http://www.w3.org/2000/svg">
<path d="M21.1211 23.0732L25.9544 24.1383L28.5212 28.1165H21.1211V23.0732Z" fill="#119E8F"/>
<path fill-rule="evenodd" clip-rule="evenodd" d="M36.3193 20.3173C36.3193 24.6245 32.8276 28.1161 28.5205 28.1161C24.2133 28.1161 20.7217 24.6245 20.7217 20.3173V12.5185H28.5205C32.8276 12.5185 36.3193 16.0102 36.3193 20.3173ZM28.5205 24.3425C30.7435 24.3425 32.5457 22.5404 32.5457 20.3173C32.5457 18.0943 30.7435 16.2921 28.5205 16.2921H24.4953V20.3173C24.4953 22.5404 26.2974 24.3425 28.5205 24.3425ZM20.7217 15.489L20.7217 12.5185H20.0938C20.4915 13.429 20.711 14.4334 20.7176 15.489H20.7217Z" fill="#FFA419"/>
<path fill-rule="evenodd" clip-rule="evenodd" d="M20.7236 12.5221H25.3865C24.0344 7.03436 19.0788 2.96445 13.1725 2.96445C6.22543 2.96445 0.59375 8.59487 0.59375 15.5403C0.59375 22.4858 6.22543 28.1162 13.1725 28.1162L28.5224 28.1163V28.1162C25.9272 28.1162 23.6281 26.8489 22.2104 24.8995V24.9162C21.8025 24.3563 21.4674 23.74 21.2189 23.0813H20.7197V23.0859H13.1725C9.00424 23.0859 5.62523 19.7076 5.62523 15.5403C5.62523 11.3731 9.00424 7.99481 13.1725 7.99481C16.2678 7.99481 18.9279 9.85776 20.0922 12.5234H20.7236V12.5221Z" fill="#119E8F"/>
<path d="M48.4184 5.90643V1.70399H45.5312V13.0602H48.4184V9.13044L48.5147 9.00212L51.4179 13.0602H55.0589L50.5838 7.18962L55.075 1.70399H51.4981L48.4184 5.90643Z" fill="#404F68"/>
<path d="M59.3276 1.70399H56.4243V9.25876C56.4083 14.584 65.4708 14.584 65.4869 9.25876V1.70399H62.5836V9.25876C62.5676 11.0873 59.3276 11.0873 59.3276 9.25876V1.70399Z" fill="#404F68"/>
<path d="M76.1288 5.1686C76.193 3.00321 74.605 1.70399 72.4397 1.70399H67.8843V13.0602H72.5199C75.0381 13.0602 76.2732 11.9535 76.5619 10.1249C76.7063 9.25876 76.5138 7.79913 74.9579 7.01318C75.776 6.59614 76.1128 5.68187 76.1288 5.1686ZM70.7715 6.14703V4.126H72.4397C73.8832 4.126 73.8351 6.14703 72.4397 6.14703H70.7715ZM70.7715 10.5419V8.21617H72.4397C74.1399 8.21617 74.172 10.5419 72.4397 10.5419H70.7715Z" fill="#404F68"/>
<path d="M81.4942 4.39868H86.4986V1.70399H78.591V13.0602H86.4986V10.3495H81.4942V8.64924H86.0976V6.16307H81.4942V4.39868Z" fill="#404F68"/>
<path d="M88.1727 11.1675C89.2313 12.5309 90.6749 13.2206 92.0383 13.2206C94.1235 13.2206 96.4332 12.0176 96.5294 9.82015C96.6578 7.02922 94.6367 6.32346 92.6157 5.95455C91.7335 5.76207 91.14 5.44127 91.108 4.89592C91.1561 3.58065 93.1931 3.53253 94.3801 4.79968L96.2568 3.35609C95.0859 1.92854 93.7545 1.54359 92.3751 1.54359C90.2899 1.54359 88.2689 2.7145 88.2689 4.94404C88.2689 7.10942 89.9371 8.26429 91.7656 8.553C92.6959 8.68132 93.7385 9.05024 93.7064 9.69184C93.6262 10.9109 91.124 10.8467 89.9852 9.46728L88.1727 11.1675Z" fill="#404F68"/>
<path d="M98.4692 13.0602H101.34V9.73995H103.024C105.767 9.73995 107.163 7.73497 107.163 5.71395C107.163 3.70897 105.783 1.70399 103.008 1.70399H98.4692V13.0602ZM101.34 7.18962V4.38264H103.008C104.741 4.3666 104.741 7.20566 103.008 7.18962H101.34Z" fill="#404F68"/>
<path d="M111.969 8.77756H115.241V13.0602H118.128V1.70399H115.241V6.00267H111.969V1.70399H109.082V13.0602H111.969V8.77756Z" fill="#404F68"/>
<path d="M123.522 4.39868H128.526V1.70399H120.619V13.0602H128.526V10.3495H123.522V8.64924H128.125V6.16307H123.522V4.39868Z" fill="#404F68"/>
<path d="M136.793 13.0602H140.37L137.274 9.16252C138.653 8.72944 139.503 7.54249 139.503 5.44127C139.439 2.77866 137.627 1.70399 135.285 1.70399H130.746V13.0602H133.649V9.45124H134.162L136.793 13.0602ZM133.649 6.9811V4.38264H135.333C137.146 4.38264 137.146 6.9811 135.333 6.9811H133.649Z" fill="#404F68"/>
<path d="M144.716 4.39868H149.72V1.70399H141.813V13.0602H149.72V10.3495H144.716V8.64924H149.319V6.16307H144.716V4.39868Z" fill="#404F68"/>
<path d="M51.5943 25.8062C50.9688 27.3781 48.4024 26.9931 48.4024 25.6298V21.716C48.4024 20.3045 50.9367 19.9837 51.7066 21.3952L54.0484 20.4489C53.1341 18.4279 51.45 17.8344 50.0545 17.8344C47.7768 17.8344 45.5312 19.1497 45.5312 21.716V25.6298C45.5312 28.2122 47.7768 29.5114 50.0064 29.5114C51.4339 29.5114 53.1502 28.8056 54.0965 26.9611L51.5943 25.8062Z" fill="#119E8F"/>
<path d="M57.5159 29.351H65.0226V26.5119H60.4031V17.9948H57.5159V29.351Z" fill="#119E8F"/>
<path d="M68.172 25.6137C68.172 28.2122 70.5299 29.5114 72.8877 29.5114C75.2456 29.5114 77.5874 28.2122 77.5874 25.6137V21.7321C77.5874 19.1336 75.2295 17.8344 72.8717 17.8344C70.5138 17.8344 68.172 19.1176 68.172 21.7321V25.6137ZM71.0431 21.7321C71.0431 20.898 71.9414 20.4489 72.8396 20.4489C73.7699 20.4489 74.7163 20.8499 74.7163 21.7321V25.6137C74.7163 26.4317 73.802 26.8488 72.8877 26.8488C71.9734 26.8488 71.0431 26.4478 71.0431 25.6137V21.7321Z" fill="#119E8F"/>
<path d="M84.3271 17.9948H81.4239V25.5496C81.4079 30.8748 90.4704 30.8748 90.4864 25.5496V17.9948H87.5832V25.5496C87.5672 27.3781 84.3271 27.3781 84.3271 25.5496V17.9948Z" fill="#119E8F"/>
<path d="M94.5628 17.9948V29.351H98.8134C101.091 29.367 103.224 28.2282 103.224 25.6137V21.7962C103.224 19.1497 101.091 17.9948 98.8134 17.9948H94.5628ZM97.45 26.6563V20.6734H98.9096C99.872 20.6734 100.337 21.1386 100.337 21.8764V25.4212C100.337 26.1591 99.8881 26.6563 98.9096 26.6563H97.45Z" fill="#119E8F"/>
</svg>
